HIERARCHY
ROOT Hips
{
  OFFSET 0 0 0
  CHANNELS 6 Xposition Yposition Zposition Zrotation Yrotation Xrotation
  JOINT LeftThigh
  {
    OFFSET 8.409438 0 -5.917753
    CHANNELS 3 Zrotation Yrotation Xrotation
    JOINT LeftLeg
    {
      OFFSET 0 0 -42.358652
      CHANNELS 3 Zrotation Yrotation Xrotation
      JOINT LeftFoot
      {
        OFFSET 0 0 -39.357303
        CHANNELS 3 Zrotation Yrotation Xrotation
      }
    }
  }
  JOINT RightThigh
  {
    OFFSET -8.409438 0 -5.917753
    CHANNELS 3 Zrotation Yrotation Xrotation
    JOINT RightLeg
    {
      OFFSET 0 0 -42.358652
      CHANNELS 3 Zrotation Yrotation Xrotation
      JOINT RightFoot
      {
        OFFSET 0 0 -39.357303
        CHANNELS 3 Zrotation Yrotation Xrotation
      }
    }
  }
  JOINT SpineLow
  {
    OFFSET 0 0 4.719101
    CHANNELS 3 Zrotation Yrotation Xrotation
    JOINT SpineMid
    {
      OFFSET 0 0 12.899191
      CHANNELS 3 Zrotation Yrotation Xrotation
      JOINT Chest
      {
        OFFSET 0 0 12.899191
        CHANNELS 3 Zrotation Yrotation Xrotation
        JOINT LeftShoulder
        {
          OFFSET 7.550562 1.41573 9.438202
          CHANNELS 3 Zrotation Yrotation Xrotation
          JOINT LeftArm
          {
            OFFSET 9.155056 0 4.247191
            CHANNELS 3 Zrotation Yrotation Xrotation
            JOINT LeftForearm
            {
              OFFSET 0 0 25.771955
              CHANNELS 3 Zrotation Yrotation Xrotation
              JOINT LeftHand
              {
                OFFSET 0 0 25.197169
                CHANNELS 3 Zrotation Yrotation Xrotation
              }
            }
          }
        }
        JOINT RightShoulder
        {
          OFFSET -7.550562 1.41573 9.438202
          CHANNELS 3 Zrotation Yrotation Xrotation
          JOINT RightArm
          {
            OFFSET -9.155056 0 4.247191
            CHANNELS 3 Zrotation Yrotation Xrotation
            JOINT RightForearm
            {
              OFFSET 0 0 -25.771955
              CHANNELS 3 Zrotation Yrotation Xrotation
              JOINT RightHand
              {
                OFFSET 0 0 -25.197169
                CHANNELS 3 Zrotation Yrotation Xrotation
              }
            }
          }
        }
        JOINT Neck
        {
          OFFSET 0 0 15.101124
          CHANNELS 3 Zrotation Yrotation Xrotation
          JOINT Head
          {
            OFFSET 0 0 11.325843
            CHANNELS 3 Zrotation Yrotation Xrotation
            End Site
            {
              OFFSET 0 0 14.157303
            }
          }
        }
      }
    }
  }
}
MOTION
Frames: 10
Frame Time: 0.0
0.0  93.25843  0.0  23.225365  -7.021207  -123.497974  47.682733  0.38018  -114.15676  5.881504  36.513082  95.937255  0.121148  -7.034758  6.851812  -6.605819  17.079909  13.67282  7.487147  13.29744  19.187878  8.542697  2.946747  2.61314  1.391618  0.859514  3.083655  3.907543  2.166842  8.477944  3.907543  2.166842  8.477945  -8.763533  26.965244  9.803025  176.195937  47.462603  -125.700909  -28.053741  -26.777317  82.419533  -42.211466  -15.74138  89.418987  7.881289  -4.263965  26.682755  99.497437  49.287745  28.136824  -38.706778  39.895229  -50.033242  42.092764  -46.352158  88.973619  7.008144  9.877747  11.635278  5.05544  7.545655  8.591809  
0.0  93.25843  0.0  23.197942  -7.085994  -123.564038  47.421615  1.084746  -114.305429  5.077516  35.640825  95.461255  -1.102582  -6.558229  7.232354  -6.297958  16.845731  13.916798  7.543449  13.397565  19.330049  8.512995  3.033515  2.64034  1.125703  0.803456  3.085393  3.174599  2.04803  8.471439  3.174599  2.04803  8.471439  -6.529582  28.803982  11.201491  177.359296  44.263891  -127.807743  -28.909215  -22.739889  80.676608  -32.297331  -6.431329  88.222442  8.892802  -3.857889  28.035583  95.51119  46.198889  28.693942  -35.233501  38.291878  -49.768781  34.957593  -39.62852  89.603414  7.815092  10.117023  11.361283  5.658474  7.737151  8.369758  
0.0  93.25843  0.0  23.027916  -7.098117  -123.520439  47.561791  1.103658  -114.449339  5.848727  37.174945  96.873301  0.211766  -6.148501  6.661879  -6.328063  16.597548  13.910285  7.707321  13.49804  19.551848  8.572013  3.175537  2.670282  0.82054  0.778263  3.089271  2.338656  2.018311  8.471951  2.338656  2.018311  8.471951  -3.647902  29.689809  12.467552  176.911338  41.010444  -131.38119  -30.446238  -19.162256  78.837562  -22.53058  2.467685  88.415291  10.469451  -3.293265  29.485116  91.379226  43.560544  29.096541  -32.359729  35.63694  -50.382128  31.263416  -28.589574  86.735583  8.598172  10.241685  10.942342  6.248598  7.839411  8.041214  
0.0  93.25843  0.0  22.68816  -7.026792  -123.271243  47.487582  0.962835  -114.270553  7.079887  37.519476  97.686287  0.015871  -5.974608  6.979044  -6.677899  16.278732  13.570006  7.828179  13.522949  19.831748  8.731128  3.226693  2.745666  0.586272  0.773637  3.104886  1.699208  2.035307  8.507573  1.699208  2.035307  8.507574  -1.035061  29.846747  13.958257  175.48849  37.453889  -135.118165  -31.971821  -17.170628  77.252336  -12.686577  8.97913  90.786793  11.537221  -2.776577  30.689433  89.537613  40.891891  30.028674  -32.071999  31.327952  -50.925021  28.601794  -19.074791  84.991276  9.020497  10.263578  10.401281  6.573075  7.855313  7.629017  
0.0  93.25843  0.0  22.093611  -6.80719  -122.802967  47.182073  0.757524  -113.483854  7.819174  37.912241  98.089428  -0.183666  -5.506113  7.272591  -7.233039  15.785225  13.043577  8.056831  13.506473  20.219251  8.953693  3.287946  2.846979  0.574954  0.761662  3.138346  1.667754  2.003216  8.598349  1.667754  2.003217  8.598348  -0.360881  29.65045  15.918477  174.147954  34.20167  -137.775251  -33.151802  -16.841481  75.597805  -3.658438  11.477602  94.988463  10.766583  -2.528196  31.265216  90.405528  37.703877  31.523757  -32.995145  28.446719  -49.966573  25.879808  -11.368143  80.811359  8.555354  10.092089  9.833228  6.237857  7.71034  7.214842  
0.0  93.25843  0.0  21.363055  -6.547415  -122.168019  46.491746  0.72059  -112.333198  8.401519  37.926056  98.855898  0.220994  -5.217074  7.435551  -7.807035  15.121695  12.381538  8.026985  13.434189  20.483857  9.104016  3.253298  2.936509  0.743937  0.755428  3.165527  2.128836  1.963314  8.677321  2.128835  1.963314  8.67732  -1.28005  29.52779  16.779368  171.685814  31.694766  -141.05269  -34.149244  -17.818178  73.776166  3.922673  11.040099  99.494159  9.287312  -2.757767  31.966179  92.026281  35.094876  32.908516  -34.999001  26.290223  -48.480373  23.821224  -4.34564  76.764387  7.478168  9.717808  9.309622  5.447298  7.40521  6.846681  
0.0  93.25843  0.0  20.44943  -6.186444  -121.415486  45.682156  0.458507  -110.663264  8.977983  37.782448  99.508463  0.613693  -4.86403  7.461945  -8.386057  14.288768  11.703349  7.931951  13.23528  20.683744  9.353465  3.252135  3.057697  0.845271  0.719272  3.264314  2.403187  1.847697  8.948732  2.403187  1.847697  8.948732  -1.86923  29.886438  17.632391  169.240081  31.016321  -143.350526  -35.263497  -18.451841  72.039695  9.999989  9.498138  103.35658  8.172755  -2.795039  32.176744  93.26796  33.27034  33.994686  -37.023291  24.510281  -47.446938  21.466393  0.975786  74.178853  6.483329  9.457279  8.457524  4.720523  7.184961  6.22836  
0.0  93.25843  0.0  19.37522  -5.679409  -120.592342  44.724715  0.109226  -108.628131  9.500105  37.641931  100.170415  0.942305  -4.489231  7.448315  -8.977021  13.262638  11.129929  7.698847  12.992499  20.703221  9.329556  3.260189  3.096331  0.817592  0.676241  3.365032  2.324308  1.730457  9.221595  2.324308  1.730457  9.221595  -1.821745  30.103527  17.78613  167.320294  31.190692  -145.812072  -36.042141  -17.656276  70.807784  15.077526  7.559508  106.206434  7.641344  -2.67606  31.79071  93.198147  31.942491  34.655195  -38.06668  23.034001  -47.280977  19.347648  5.19175  72.252148  5.835954  9.178829  7.474686  4.255187  6.957252  5.506243  
0.0  93.25843  0.0  18.200987  -5.061975  -119.683409  43.460938  -0.474349  -106.147626  9.976596  37.230137  100.678662  1.378693  -4.109014  7.381149  -9.571648  12.170021  10.501858  7.370227  12.689244  20.622167  9.288914  3.248092  3.148154  0.681608  0.649381  3.434984  1.951293  1.67405  9.408503  1.951293  1.67405  9.408503  -1.050076  29.777403  17.359315  165.407557  30.724814  -148.218495  -36.099645  -16.766132  70.099326  19.18234  5.261959  108.225025  8.229125  -2.500605  31.675378  91.025673  31.832658  34.422502  -38.469976  21.477498  -48.073878  18.367075  7.961118  70.366827  5.57764  8.793959  6.524777  4.080984  6.656397  4.803587  
0.0  93.25843  0.0  16.951514  -4.359302  -118.661228  42.025209  -1.099997  -103.329136  10.255178  36.710988  101.031756  1.871634  -3.685363  7.254613  -10.069795  10.901608  9.851928  6.808442  12.476187  20.384805  9.146617  3.174856  3.17574  0.552444  0.568222  3.429686  1.587283  1.471253  9.388564  1.587283  1.471253  9.388564  -0.499882  29.592966  17.132544  164.037414  29.949032  -150.089826  -35.658801  -16.173598  69.677006  22.374853  3.06804  109.54807  8.280343  -2.179176  31.42617  88.261855  31.895902  33.955199  -38.132775  19.033565  -49.008013  18.909761  10.481182  67.828636  5.287344  8.520061  5.890447  3.875935  6.442146  4.335848  
